<?xml version="1.0" standalone="no"?>
<!DOCTYPE svg PUBLIC "-//W3C//DTD SVG 20010904//EN"
 "http://www.w3.org/TR/2001/REC-SVG-20010904/DTD/svg10.dtd">
<svg version="1.0" xmlns="http://www.w3.org/2000/svg"
 width="164.000000pt" height="218.000000pt" viewBox="0 0 164.000000 218.000000"
 preserveAspectRatio="xMidYMid meet">

<g transform="translate(0.000000,218.000000) scale(0.100000,-0.100000)"
fill="#000000" stroke="none">
<path d="M208 1959 c-17 -9 -18 -62 -18 -884 0 -862 0 -875 20 -895 14 -14 33
-20 65 -20 32 0 55 -7 76 -23 l31 -22 514 -3 c558 -3 564 -2 599 52 16 24 17
85 16 728 l-1 703 -30 59 c-22 44 -30 73 -30 113 0 91 -35 152 -105 184 -37
17 -77 19 -580 18 -349 0 -546 -3 -557 -10z m589 -164 c13 -28 14 -39 5 -60
-16 -35 -15 -55 4 -101 16 -39 17 -39 26 -14 5 14 11 34 14 45 6 30 42 55 80
55 19 0 34 -4 34 -8 0 -4 -16 -24 -36 -45 -26 -26 -42 -36 -55 -32 -26 9 -30
-18 -27 -159 l3 -119 87 130 c59 90 85 137 82 151 -7 24 38 62 72 62 22 0 23
-2 12 -27 -17 -40 -38 -63 -59 -63 -11 0 -28 -20 -47 -55 -17 -30 -29 -55 -27
-55 3 0 151 81 213 116 62 37 51 23 -25 -30 -199 -136 -202 -139 -258 -223
l-55 -82 0 -80 c0 -44 4 -82 8 -85 5 -3 35 21 67 54 32 32 68 61 81 64 29 8
51 43 35 59 -6 6 -11 18 -11 28 0 23 35 65 60 72 18 4 20 0 20 -34 0 -29 -7
-47 -25 -65 -14 -14 -25 -27 -25 -29 0 -10 49 -5 55 5 14 22 105 2 105 -23 0
-3 -16 -11 -35 -17 -29 -10 -39 -9 -63 6 -18 10 -39 14 -53 11 -23 -6 -121
-81 -127 -97 -4 -12 100 20 119 36 32 28 98 4 124 -46 l16 -30 -61 0 c-47 0
-64 4 -80 20 -24 24 -60 27 -60 5 0 -9 9 -29 21 -44 16 -21 19 -37 15 -59 -7
-29 -39 -72 -55 -72 -4 0 -13 25 -20 56 -12 53 -12 57 10 80 29 31 17 42 -25
22 -21 -10 -43 -34 -60 -63 -26 -47 -26 -51 -26 -239 0 -218 9 -252 67 -271
18 -6 36 -14 40 -19 4 -5 -2 -5 -15 -1 -13 4 -78 7 -144 6 -121 0 -121 0 -87
17 54 27 59 48 61 263 1 190 1 195 -24 244 -17 33 -38 56 -60 67 l-33 18 30
-6 c29 -5 27 -3 -25 45 -76 71 -100 83 -125 65 -10 -8 -27 -14 -37 -14 -20 0
-86 55 -77 64 4 4 29 9 57 13 46 5 51 3 67 -20 9 -14 33 -31 53 -38 23 -7 65
-39 110 -82 l72 -71 0 90 c0 89 -1 92 -41 155 -23 35 -42 65 -43 66 0 0 -17 4
-38 8 -32 6 -39 3 -64 -24 -22 -26 -35 -31 -70 -31 -24 0 -45 4 -48 9 -3 5 10
23 29 40 35 30 71 39 91 23 5 -4 27 -5 49 -2 l40 5 -25 18 c-103 74 -133 79
-165 31 -12 -19 -24 -24 -55 -24 -21 0 -41 4 -44 8 -9 15 53 53 82 51 40 -3
62 0 62 9 0 4 -30 27 -66 52 -130 88 -75 66 104 -41 34 -21 62 -35 62 -32 0 3
-11 27 -25 55 -14 27 -25 53 -25 58 0 12 50 70 61 70 16 0 10 -97 -7 -115 -15
-14 -12 -21 27 -82 44 -67 44 -67 50 -38 7 30 7 30 8 -5 1 -34 33 -100 49
-100 4 0 16 46 26 103 17 101 17 103 -3 161 -12 33 -21 67 -21 78 0 10 -5 18
-10 18 -20 0 -31 51 -20 86 15 43 26 43 47 -1z m-37 -229 c0 -37 -21 -76 -42
-76 -5 0 -13 12 -18 26 -9 22 -6 35 16 71 30 52 44 45 44 -21z m436 -52 c42
-20 39 -38 -5 -42 -40 -4 -77 23 -60 45 15 17 24 16 65 -3z m-623 -342 c16
-17 16 -20 -2 -39 -21 -22 -119 -39 -135 -23 -5 5 5 23 27 45 40 40 83 47 110
17z m66 -21 c8 -5 11 -16 6 -30 -4 -12 -2 -21 4 -21 23 0 31 -38 19 -90 -13
-55 -21 -58 -52 -17 -24 32 -25 85 -3 102 20 14 23 51 5 58 -7 3 -8 6 -3 6 6
0 16 -3 24 -8z m774 -873 c-10 -17 -38 -42 -62 -55 l-44 -23 -481 1 c-265 1
-470 5 -456 9 14 4 19 8 13 9 -20 2 -15 21 5 21 14 0 15 2 2 10 -11 7 -6 10
20 11 19 0 28 3 20 7 -9 3 4 11 35 21 40 12 133 16 450 20 435 6 429 6 485 66
l25 27 3 -47 c2 -31 -3 -56 -15 -77z"/>
</g>
</svg>
