<?xml version="1.0" standalone="no"?>
<!DOCTYPE svg PUBLIC "-//W3C//DTD SVG 20010904//EN"
 "http://www.w3.org/TR/2001/REC-SVG-20010904/DTD/svg10.dtd">
<svg version="1.0" xmlns="http://www.w3.org/2000/svg"
 width="1024.000000pt" height="1024.000000pt" viewBox="0 0 1024.000000 1024.000000"
 preserveAspectRatio="xMidYMid meet">

<g transform="translate(0.000000,1024.000000) scale(0.100000,-0.100000)"
fill="#000000" stroke="none">
<path d="M0 5120 l0 -5120 5120 0 5120 0 0 5120 0 5120 -5120 0 -5120 0 0
-5120z m6610 3850 c0 -64 -4 -92 -12 -95 -12 -4 -753 -144 -3000 -564 -384
-72 -702 -131 -707 -131 -22 0 -51 -45 -51 -78 0 -26 8 -42 33 -66 66 -62 237
-138 407 -180 179 -45 234 -51 485 -51 205 1 258 4 365 24 608 110 1809 328
1990 360 124 22 512 92 863 156 351 63 643 115 650 115 9 0 11 -623 7 -2782
-4 -2389 -7 -2786 -19 -2804 -8 -12 -31 -30 -50 -39 -42 -20 -616 -259 -1936
-807 -1853 -769 -1715 -715 -1900 -743 -233 -35 -447 -2 -650 100 -114 57
-537 366 -560 409 -18 32 -18 113 -6 2212 22 3597 25 3949 44 4017 37 129 121
239 209 271 24 9 376 81 783 162 407 80 1251 248 1875 373 624 126 1145 229
1158 230 21 1 22 -2 22 -89z m428 -282 c16 -16 15 -53 -2 -67 -7 -6 -222 -45
-477 -86 -255 -42 -558 -91 -674 -110 -115 -19 -322 -52 -460 -74 -758 -123
-1447 -236 -1645 -270 -124 -22 -318 -56 -431 -76 -114 -19 -214 -33 -223 -29
-44 17 -39 78 7 89 95 22 1277 220 2142 360 563 90 961 155 1345 219 347 57
399 63 418 44z"/>
<path d="M7305 8204 c-136 -26 -2177 -399 -2770 -506 -214 -38 -401 -75 -413
-82 l-24 -11 1 -370 c1 -203 8 -1126 16 -2050 8 -924 18 -2100 22 -2613 6
-855 8 -936 23 -955 17 -20 17 -20 261 80 301 125 568 235 1224 505 1093 450
1771 731 1788 739 16 9 17 143 15 2646 -2 1748 -6 2637 -13 2638 -5 1 -64 -8
-130 -21z m-387 -364 c12 -12 22 -22 22 -24 0 -1 5 -29 11 -62 22 -121 95
-217 205 -269 28 -13 56 -30 63 -38 8 -11 11 -494 11 -1997 0 -1807 -1 -1985
-16 -2001 -9 -10 -40 -29 -70 -44 -103 -50 -179 -166 -193 -294 -7 -72 -28
-111 -60 -111 -9 0 -108 -41 -221 -91 -1425 -632 -1930 -849 -1970 -849 -46 0
-65 20 -81 85 -31 127 -102 212 -223 265 -50 22 -78 41 -83 54 -8 25 -5 4423
3 4449 3 11 34 31 70 47 133 60 211 171 223 318 5 65 9 77 31 93 17 13 363 91
1100 248 591 126 1084 231 1095 234 41 10 62 6 83 -13z"/>
<path d="M6470 7676 c-184 -40 -436 -95 -560 -121 -706 -149 -1193 -255 -1198
-260 -3 -3 -9 -35 -14 -72 -16 -136 -111 -273 -228 -329 l-60 -29 0 -2175 0
-2175 59 -27 c103 -48 214 -183 236 -286 8 -38 17 -39 86 -8 30 14 214 94 409
179 338 148 823 361 1235 544 105 46 240 105 301 131 l112 47 12 68 c23 130
111 259 217 319 l53 30 0 1936 0 1937 -47 25 c-72 38 -150 122 -189 203 -19
39 -34 79 -34 88 0 32 -12 49 -34 48 -11 0 -172 -33 -356 -73z"/>
<path d="M2719 7893 c-10 -222 -9 -282 7 -297 55 -56 266 -183 419 -253 162
-74 434 -153 617 -178 74 -10 98 -45 57 -86 -23 -23 -40 -22 -234 18 -262 54
-565 176 -773 312 -51 34 -95 61 -98 61 -2 0 -4 -282 -4 -627 l0 -628 90 -87
c147 -142 344 -264 551 -341 92 -35 291 -89 374 -102 102 -17 128 -38 100 -81
-12 -19 -24 -24 -58 -24 -131 1 -517 122 -676 212 -126 71 -297 194 -345 247
-11 12 -22 21 -25 21 -3 0 -5 -59 -4 -132 l1 -132 34 -28 c71 -61 219 -153
350 -218 185 -92 382 -153 623 -195 108 -18 141 -48 99 -89 -22 -22 -79 -20
-216 9 -303 63 -542 159 -782 315 -59 38 -110 70 -113 70 -3 0 -4 -327 -2
-726 l4 -726 96 -92 c52 -50 132 -117 176 -149 178 -127 439 -234 707 -290
129 -28 152 -41 142 -81 -9 -38 -45 -42 -164 -17 -384 81 -621 196 -922 450
l-35 29 1 -136 2 -137 48 -43 c218 -194 608 -367 953 -423 84 -13 101 -23 101
-59 0 -62 -49 -62 -296 0 -289 73 -482 161 -722 326 l-93 65 2 -631 1 -630 78
-73 c205 -193 475 -326 815 -402 180 -39 194 -44 205 -65 14 -26 -2 -58 -33
-65 -27 -7 -179 23 -332 66 -257 73 -454 171 -652 325 l-82 64 1 -169 c0 -160
2 -171 22 -189 40 -36 352 -261 409 -295 31 -19 100 -49 154 -68 96 -33 102
-33 263 -34 172 0 233 10 340 56 l45 19 -3 3020 -2 3020 -148 0 c-400 0 -746
91 -999 262 -59 39 -73 45 -74 31z"/>
</g>
</svg>
